<svg width="16" height="16" viewBox="0 0 16 16" xmlns="http://www.w3.org/2000/svg">
  <path fill="currentColor" d="M10.5033,9.50521H9.97659L9.78992,9.32521C10.4433,8.56521 10.8366,7.57854 10.8366,6.50521C10.8366,4.11188 8.89659,2.17188 6.50326,2.17188C4.10992,2.17188 2.16992,4.11188 2.16992,6.50521C2.16992,8.89854 4.10992,10.8385 6.50326,10.8385C7.57659,10.8385 8.56326,10.4452 9.32326,9.79188L9.50326,9.97854V10.5052L12.8366,13.8319L13.8299,12.8385L10.5033,9.50521ZM6.50326,9.50521C4.84326,9.50521 3.50326,8.16521 3.50326,6.50521C3.50326,4.84521 4.84326,3.50521 6.50326,3.50521C8.16326,3.50521 9.50326,4.84521 9.50326,6.50521C9.50326,8.16521 8.16326,9.50521 6.50326,9.50521Z" />
</svg>
